<mxfile host="app.diagrams.net" agent="Mozilla/5.0 (X11; Linux x86_64) AppleWebKit/537.36 (KHTML, like Gecko) Chrome/126.0.0.0 Safari/537.36" version="24.7.16">
  <diagram name="PÃ¡gina-1" id="xLEbLWEpb5DnmM2ml_3p">
    <mxGraphModel dx="548" dy="499" grid="1" gridSize="10" guides="1" tooltips="1" connect="1" arrows="1" fold="1" page="1" pageScale="1" pageWidth="827" pageHeight="1169" math="0" shadow="0">
      <root>
        <mxCell id="0" />
        <mxCell id="1" parent="0" />
        <mxCell id="GEkU-7t59s7T-fOhTXQf-1" value="EMPLEADOS" style="rounded=0;whiteSpace=wrap;html=1;" vertex="1" parent="1">
          <mxGeometry x="232" y="80" width="120" height="60" as="geometry" />
        </mxCell>
        <mxCell id="GEkU-7t59s7T-fOhTXQf-2" value="DEPARTAMENTOS" style="rounded=0;whiteSpace=wrap;html=1;" vertex="1" parent="1">
          <mxGeometry x="632" y="90" width="120" height="60" as="geometry" />
        </mxCell>
        <mxCell id="GEkU-7t59s7T-fOhTXQf-3" value="" style="endArrow=none;html=1;rounded=0;entryX=0.75;entryY=1;entryDx=0;entryDy=0;" edge="1" parent="1" source="GEkU-7t59s7T-fOhTXQf-4" target="GEkU-7t59s7T-fOhTXQf-1">
          <mxGeometry width="50" height="50" relative="1" as="geometry">
            <mxPoint x="322" y="180" as="sourcePoint" />
            <mxPoint x="532" y="100" as="targetPoint" />
          </mxGeometry>
        </mxCell>
        <mxCell id="GEkU-7t59s7T-fOhTXQf-5" value="" style="endArrow=none;html=1;rounded=0;entryX=0.75;entryY=1;entryDx=0;entryDy=0;" edge="1" parent="1" target="GEkU-7t59s7T-fOhTXQf-4">
          <mxGeometry width="50" height="50" relative="1" as="geometry">
            <mxPoint x="322" y="180" as="sourcePoint" />
            <mxPoint x="322" y="140" as="targetPoint" />
          </mxGeometry>
        </mxCell>
        <mxCell id="GEkU-7t59s7T-fOhTXQf-4" value="" style="ellipse;whiteSpace=wrap;html=1;aspect=fixed;fillColor=#000000;" vertex="1" parent="1">
          <mxGeometry x="312" y="180" width="20" height="20" as="geometry" />
        </mxCell>
        <mxCell id="GEkU-7t59s7T-fOhTXQf-6" value="ID_E" style="text;html=1;align=center;verticalAlign=middle;resizable=0;points=[];autosize=1;strokeColor=none;fillColor=none;" vertex="1" parent="1">
          <mxGeometry x="297" y="200" width="50" height="30" as="geometry" />
        </mxCell>
        <mxCell id="GEkU-7t59s7T-fOhTXQf-7" value="" style="endArrow=none;html=1;rounded=0;entryX=0.5;entryY=1;entryDx=0;entryDy=0;" edge="1" parent="1" target="GEkU-7t59s7T-fOhTXQf-1">
          <mxGeometry width="50" height="50" relative="1" as="geometry">
            <mxPoint x="292" y="180" as="sourcePoint" />
            <mxPoint x="332" y="150" as="targetPoint" />
          </mxGeometry>
        </mxCell>
        <mxCell id="GEkU-7t59s7T-fOhTXQf-8" value="" style="ellipse;whiteSpace=wrap;html=1;aspect=fixed;shadow=0;" vertex="1" parent="1">
          <mxGeometry x="282" y="180" width="20" height="20" as="geometry" />
        </mxCell>
        <mxCell id="GEkU-7t59s7T-fOhTXQf-9" value="DNI_E" style="text;html=1;align=center;verticalAlign=middle;resizable=0;points=[];autosize=1;strokeColor=none;fillColor=none;" vertex="1" parent="1">
          <mxGeometry x="252" y="198" width="60" height="30" as="geometry" />
        </mxCell>
        <mxCell id="GEkU-7t59s7T-fOhTXQf-10" value="" style="endArrow=none;html=1;rounded=0;entryX=0.25;entryY=1;entryDx=0;entryDy=0;" edge="1" parent="1" target="GEkU-7t59s7T-fOhTXQf-1">
          <mxGeometry width="50" height="50" relative="1" as="geometry">
            <mxPoint x="242" y="180" as="sourcePoint" />
            <mxPoint x="302" y="150" as="targetPoint" />
          </mxGeometry>
        </mxCell>
        <mxCell id="GEkU-7t59s7T-fOhTXQf-11" value="" style="ellipse;whiteSpace=wrap;html=1;aspect=fixed;" vertex="1" parent="1">
          <mxGeometry x="232" y="178" width="20" height="20" as="geometry" />
        </mxCell>
        <mxCell id="GEkU-7t59s7T-fOhTXQf-17" value="Nombre" style="text;html=1;align=center;verticalAlign=middle;resizable=0;points=[];autosize=1;strokeColor=none;fillColor=none;" vertex="1" parent="1">
          <mxGeometry x="202" y="198" width="70" height="30" as="geometry" />
        </mxCell>
        <mxCell id="GEkU-7t59s7T-fOhTXQf-18" value="" style="endArrow=none;html=1;rounded=0;entryX=-0.006;entryY=0.894;entryDx=0;entryDy=0;entryPerimeter=0;exitX=0.885;exitY=0.036;exitDx=0;exitDy=0;exitPerimeter=0;" edge="1" parent="1" source="GEkU-7t59s7T-fOhTXQf-20">
          <mxGeometry width="50" height="50" relative="1" as="geometry">
            <mxPoint x="247.93000000000004" y="128" as="sourcePoint" />
            <mxPoint x="237.36000000000004" y="140.59" as="targetPoint" />
            <Array as="points">
              <mxPoint x="226.08" y="146.95" />
            </Array>
          </mxGeometry>
        </mxCell>
        <mxCell id="GEkU-7t59s7T-fOhTXQf-19" value="" style="ellipse;whiteSpace=wrap;html=1;aspect=fixed;" vertex="1" parent="1">
          <mxGeometry x="200" y="150" width="20" height="20" as="geometry" />
        </mxCell>
        <mxCell id="GEkU-7t59s7T-fOhTXQf-20" value="Telefono" style="text;html=1;align=center;verticalAlign=middle;resizable=0;points=[];autosize=1;strokeColor=none;fillColor=none;" vertex="1" parent="1">
          <mxGeometry x="150" y="158" width="70" height="30" as="geometry" />
        </mxCell>
        <mxCell id="GEkU-7t59s7T-fOhTXQf-21" value="" style="endArrow=none;html=1;rounded=0;entryX=-0.022;entryY=0.406;entryDx=0;entryDy=0;entryPerimeter=0;exitX=0.035;exitY=-0.027;exitDx=0;exitDy=0;exitPerimeter=0;" edge="1" parent="1" source="GEkU-7t59s7T-fOhTXQf-46" target="GEkU-7t59s7T-fOhTXQf-1">
          <mxGeometry width="50" height="50" relative="1" as="geometry">
            <mxPoint x="202" y="110" as="sourcePoint" />
            <mxPoint x="241" y="144" as="targetPoint" />
          </mxGeometry>
        </mxCell>
        <mxCell id="GEkU-7t59s7T-fOhTXQf-22" value="" style="ellipse;whiteSpace=wrap;html=1;aspect=fixed;" vertex="1" parent="1">
          <mxGeometry x="187" y="90" width="20" height="20" as="geometry" />
        </mxCell>
        <mxCell id="GEkU-7t59s7T-fOhTXQf-23" value="Salario" style="text;html=1;align=center;verticalAlign=middle;resizable=0;points=[];autosize=1;strokeColor=none;fillColor=none;" vertex="1" parent="1">
          <mxGeometry x="140" y="85" width="60" height="30" as="geometry" />
        </mxCell>
        <mxCell id="GEkU-7t59s7T-fOhTXQf-24" value="" style="endArrow=none;html=1;rounded=0;entryX=0.333;entryY=0.995;entryDx=0;entryDy=0;entryPerimeter=0;" edge="1" parent="1" target="GEkU-7t59s7T-fOhTXQf-2">
          <mxGeometry width="50" height="50" relative="1" as="geometry">
            <mxPoint x="662" y="180" as="sourcePoint" />
            <mxPoint x="332" y="150" as="targetPoint" />
          </mxGeometry>
        </mxCell>
        <mxCell id="GEkU-7t59s7T-fOhTXQf-25" value="" style="ellipse;whiteSpace=wrap;html=1;aspect=fixed;fillColor=#000000;" vertex="1" parent="1">
          <mxGeometry x="652" y="178" width="20" height="20" as="geometry" />
        </mxCell>
        <mxCell id="GEkU-7t59s7T-fOhTXQf-26" value="" style="ellipse;whiteSpace=wrap;html=1;aspect=fixed;" vertex="1" parent="1">
          <mxGeometry x="712" y="178" width="20" height="20" as="geometry" />
        </mxCell>
        <mxCell id="GEkU-7t59s7T-fOhTXQf-27" value="" style="ellipse;whiteSpace=wrap;html=1;aspect=fixed;" vertex="1" parent="1">
          <mxGeometry x="772" y="178" width="20" height="20" as="geometry" />
        </mxCell>
        <mxCell id="GEkU-7t59s7T-fOhTXQf-28" value="" style="endArrow=none;html=1;rounded=0;entryX=0.7;entryY=0.995;entryDx=0;entryDy=0;entryPerimeter=0;" edge="1" parent="1" source="GEkU-7t59s7T-fOhTXQf-26" target="GEkU-7t59s7T-fOhTXQf-2">
          <mxGeometry width="50" height="50" relative="1" as="geometry">
            <mxPoint x="672" y="190" as="sourcePoint" />
            <mxPoint x="682" y="160" as="targetPoint" />
          </mxGeometry>
        </mxCell>
        <mxCell id="GEkU-7t59s7T-fOhTXQf-29" value="" style="endArrow=none;html=1;rounded=0;entryX=1;entryY=1;entryDx=0;entryDy=0;" edge="1" parent="1" source="GEkU-7t59s7T-fOhTXQf-27" target="GEkU-7t59s7T-fOhTXQf-2">
          <mxGeometry width="50" height="50" relative="1" as="geometry">
            <mxPoint x="682" y="200" as="sourcePoint" />
            <mxPoint x="692" y="170" as="targetPoint" />
          </mxGeometry>
        </mxCell>
        <mxCell id="GEkU-7t59s7T-fOhTXQf-30" value="Codigo_D" style="text;html=1;align=center;verticalAlign=middle;resizable=0;points=[];autosize=1;strokeColor=none;fillColor=none;" vertex="1" parent="1">
          <mxGeometry x="602" y="198" width="80" height="30" as="geometry" />
        </mxCell>
        <mxCell id="GEkU-7t59s7T-fOhTXQf-31" value="Nombre" style="text;html=1;align=center;verticalAlign=middle;resizable=0;points=[];autosize=1;strokeColor=none;fillColor=none;" vertex="1" parent="1">
          <mxGeometry x="687" y="198" width="70" height="30" as="geometry" />
        </mxCell>
        <mxCell id="GEkU-7t59s7T-fOhTXQf-32" value="Localizacion" style="text;html=1;align=center;verticalAlign=middle;resizable=0;points=[];autosize=1;strokeColor=none;fillColor=none;" vertex="1" parent="1">
          <mxGeometry x="737" y="188" width="90" height="30" as="geometry" />
        </mxCell>
        <mxCell id="GEkU-7t59s7T-fOhTXQf-33" value="" style="rhombus;whiteSpace=wrap;html=1;" vertex="1" parent="1">
          <mxGeometry x="470" y="96" width="46" height="52" as="geometry" />
        </mxCell>
        <mxCell id="GEkU-7t59s7T-fOhTXQf-35" value="" style="endArrow=classic;html=1;rounded=0;entryX=1;entryY=0.5;entryDx=0;entryDy=0;exitX=0;exitY=0.5;exitDx=0;exitDy=0;" edge="1" parent="1" source="GEkU-7t59s7T-fOhTXQf-33">
          <mxGeometry width="50" height="50" relative="1" as="geometry">
            <mxPoint x="471.6103500761037" y="127.08960426179607" as="sourcePoint" />
            <mxPoint x="352.0000000000001" y="116.91000000000003" as="targetPoint" />
          </mxGeometry>
        </mxCell>
        <mxCell id="GEkU-7t59s7T-fOhTXQf-37" value="" style="endArrow=none;html=1;rounded=0;entryX=0;entryY=0.5;entryDx=0;entryDy=0;exitX=1;exitY=0.5;exitDx=0;exitDy=0;" edge="1" parent="1" source="GEkU-7t59s7T-fOhTXQf-33" target="GEkU-7t59s7T-fOhTXQf-2">
          <mxGeometry width="50" height="50" relative="1" as="geometry">
            <mxPoint x="472" y="160" as="sourcePoint" />
            <mxPoint x="522" y="110" as="targetPoint" />
          </mxGeometry>
        </mxCell>
        <mxCell id="GEkU-7t59s7T-fOhTXQf-38" value="" style="endArrow=none;html=1;rounded=0;exitX=0.309;exitY=-0.007;exitDx=0;exitDy=0;exitPerimeter=0;" edge="1" parent="1" source="GEkU-7t59s7T-fOhTXQf-1">
          <mxGeometry width="50" height="50" relative="1" as="geometry">
            <mxPoint x="270" y="70" as="sourcePoint" />
            <mxPoint x="270" y="30" as="targetPoint" />
          </mxGeometry>
        </mxCell>
        <mxCell id="GEkU-7t59s7T-fOhTXQf-39" value="" style="shape=xor;whiteSpace=wrap;html=1;strokeColor=#000000;fillColor=#000000;" vertex="1" parent="1">
          <mxGeometry x="290" y="180" width="12" height="20" as="geometry" />
        </mxCell>
        <mxCell id="GEkU-7t59s7T-fOhTXQf-40" value="" style="endArrow=none;html=1;rounded=0;" edge="1" parent="1">
          <mxGeometry width="50" height="50" relative="1" as="geometry">
            <mxPoint x="70" y="30" as="sourcePoint" />
            <mxPoint x="270" y="30" as="targetPoint" />
          </mxGeometry>
        </mxCell>
        <mxCell id="GEkU-7t59s7T-fOhTXQf-41" value="Es&lt;div&gt;Jefe&lt;/div&gt;" style="rhombus;whiteSpace=wrap;html=1;" vertex="1" parent="1">
          <mxGeometry x="50" y="30" width="50" height="60" as="geometry" />
        </mxCell>
        <mxCell id="GEkU-7t59s7T-fOhTXQf-44" value="" style="endArrow=classic;html=1;rounded=0;" edge="1" parent="1">
          <mxGeometry width="50" height="50" relative="1" as="geometry">
            <mxPoint x="70" y="130" as="sourcePoint" />
            <mxPoint x="230" y="130" as="targetPoint" />
          </mxGeometry>
        </mxCell>
        <mxCell id="GEkU-7t59s7T-fOhTXQf-45" value="" style="endArrow=none;html=1;rounded=0;entryX=0.5;entryY=1;entryDx=0;entryDy=0;" edge="1" parent="1" target="GEkU-7t59s7T-fOhTXQf-41">
          <mxGeometry width="50" height="50" relative="1" as="geometry">
            <mxPoint x="75" y="130" as="sourcePoint" />
            <mxPoint x="340" y="80" as="targetPoint" />
          </mxGeometry>
        </mxCell>
        <mxCell id="GEkU-7t59s7T-fOhTXQf-46" value="(0,n)" style="text;html=1;align=center;verticalAlign=middle;resizable=0;points=[];autosize=1;strokeColor=none;fillColor=none;" vertex="1" parent="1">
          <mxGeometry x="187" y="105" width="50" height="30" as="geometry" />
        </mxCell>
        <mxCell id="GEkU-7t59s7T-fOhTXQf-48" value="(0,1)" style="text;html=1;align=center;verticalAlign=middle;resizable=0;points=[];autosize=1;strokeColor=none;fillColor=none;" vertex="1" parent="1">
          <mxGeometry x="257" y="55" width="50" height="30" as="geometry" />
        </mxCell>
        <mxCell id="GEkU-7t59s7T-fOhTXQf-49" value="(1,1)" style="text;html=1;align=center;verticalAlign=middle;resizable=0;points=[];autosize=1;strokeColor=none;fillColor=none;" vertex="1" parent="1">
          <mxGeometry x="595" y="88" width="50" height="30" as="geometry" />
        </mxCell>
        <mxCell id="GEkU-7t59s7T-fOhTXQf-50" value="(1,n)" style="text;html=1;align=center;verticalAlign=middle;resizable=0;points=[];autosize=1;strokeColor=none;fillColor=none;" vertex="1" parent="1">
          <mxGeometry x="335" y="78" width="50" height="30" as="geometry" />
        </mxCell>
        <mxCell id="GEkU-7t59s7T-fOhTXQf-51" value="1:N" style="text;html=1;align=center;verticalAlign=middle;resizable=0;points=[];autosize=1;strokeColor=none;fillColor=none;" vertex="1" parent="1">
          <mxGeometry x="473" y="66" width="40" height="30" as="geometry" />
        </mxCell>
        <mxCell id="GEkU-7t59s7T-fOhTXQf-52" value="1&lt;div&gt;. .&lt;br&gt;N&lt;/div&gt;" style="text;html=1;align=center;verticalAlign=middle;resizable=0;points=[];autosize=1;strokeColor=none;fillColor=none;" vertex="1" parent="1">
          <mxGeometry x="20" y="30" width="30" height="60" as="geometry" />
        </mxCell>
        <mxCell id="GEkU-7t59s7T-fOhTXQf-53" value="" style="endArrow=none;html=1;rounded=0;entryX=0.917;entryY=1.033;entryDx=0;entryDy=0;entryPerimeter=0;" edge="1" parent="1" target="GEkU-7t59s7T-fOhTXQf-1">
          <mxGeometry width="50" height="50" relative="1" as="geometry">
            <mxPoint x="342" y="250" as="sourcePoint" />
            <mxPoint x="440" y="240" as="targetPoint" />
          </mxGeometry>
        </mxCell>
        <mxCell id="GEkU-7t59s7T-fOhTXQf-54" value="" style="endArrow=none;html=1;rounded=0;entryX=0;entryY=0.5;entryDx=0;entryDy=0;" edge="1" parent="1" target="GEkU-7t59s7T-fOhTXQf-55">
          <mxGeometry width="50" height="50" relative="1" as="geometry">
            <mxPoint x="340" y="250" as="sourcePoint" />
            <mxPoint x="450" y="250" as="targetPoint" />
          </mxGeometry>
        </mxCell>
        <mxCell id="GEkU-7t59s7T-fOhTXQf-55" value="Jefe" style="rhombus;whiteSpace=wrap;html=1;" vertex="1" parent="1">
          <mxGeometry x="456" y="218" width="57" height="60" as="geometry" />
        </mxCell>
        <mxCell id="GEkU-7t59s7T-fOhTXQf-56" value="" style="endArrow=none;html=1;rounded=0;exitX=1;exitY=0.5;exitDx=0;exitDy=0;" edge="1" parent="1" source="GEkU-7t59s7T-fOhTXQf-55">
          <mxGeometry width="50" height="50" relative="1" as="geometry">
            <mxPoint x="390" y="290" as="sourcePoint" />
            <mxPoint x="630" y="250" as="targetPoint" />
          </mxGeometry>
        </mxCell>
        <mxCell id="GEkU-7t59s7T-fOhTXQf-57" value="" style="endArrow=none;html=1;rounded=0;entryX=0;entryY=1;entryDx=0;entryDy=0;" edge="1" parent="1" target="GEkU-7t59s7T-fOhTXQf-2">
          <mxGeometry width="50" height="50" relative="1" as="geometry">
            <mxPoint x="630" y="250" as="sourcePoint" />
            <mxPoint x="440" y="240" as="targetPoint" />
          </mxGeometry>
        </mxCell>
        <mxCell id="GEkU-7t59s7T-fOhTXQf-58" value="(0,1)" style="text;html=1;align=center;verticalAlign=middle;resizable=0;points=[];autosize=1;strokeColor=none;fillColor=none;" vertex="1" parent="1">
          <mxGeometry x="595" y="148" width="50" height="30" as="geometry" />
        </mxCell>
        <mxCell id="GEkU-7t59s7T-fOhTXQf-59" value="(1,1)" style="text;html=1;align=center;verticalAlign=middle;resizable=0;points=[];autosize=1;strokeColor=none;fillColor=none;" vertex="1" parent="1">
          <mxGeometry x="332" y="135" width="50" height="30" as="geometry" />
        </mxCell>
      </root>
    </mxGraphModel>
  </diagram>
</mxfile>
